<?xml version="1.0" standalone="no"?>
<!DOCTYPE svg PUBLIC "-//W3C//DTD SVG 20010904//EN"
 "http://www.w3.org/TR/2001/REC-SVG-20010904/DTD/svg10.dtd">
<svg version="1.0" xmlns="http://www.w3.org/2000/svg"
 width="1340.000000pt" height="556.000000pt" viewBox="0 0 1340.000000 556.000000"
 preserveAspectRatio="xMidYMid meet">

<g transform="translate(0.000000,556.000000) scale(0.100000,-0.100000)"
fill="#000000" stroke="none">
<path d="M0 2780 l0 -2780 6700 0 6700 0 0 2780 0 2780 -6700 0 -6700 0 0
-2780z m9293 1090 c64 -16 134 -30 156 -30 47 0 43 10 65 -160 11 -83 12 -116
4 -121 -18 -12 -34 0 -52 39 -74 155 -240 252 -383 223 -72 -14 -144 -62 -174
-114 -18 -32 -21 -50 -16 -97 11 -120 87 -208 329 -383 215 -156 293 -242 338
-378 30 -88 25 -191 -12 -271 -94 -202 -397 -294 -655 -199 -61 22 -90 28
-126 24 -26 -3 -47 -2 -47 3 0 5 -7 63 -15 129 -19 153 -19 195 -2 195 20 0
39 -26 75 -101 78 -163 269 -253 433 -206 233 68 260 327 55 514 -29 27 -115
91 -191 143 -179 122 -273 213 -317 306 -30 63 -33 77 -33 164 0 115 22 168
99 237 127 114 260 137 469 83z m1160 0 c64 -16 134 -30 156 -30 23 0 41 -1
41 -2 0 -2 9 -64 19 -138 19 -135 16 -155 -16 -143 -8 3 -27 31 -42 62 -76
149 -253 238 -392 197 -116 -33 -174 -105 -167 -205 9 -120 76 -201 300 -362
167 -120 294 -241 332 -317 90 -177 68 -344 -59 -461 -144 -131 -363 -166
-575 -92 -64 23 -95 29 -127 24 -38 -5 -42 -3 -47 18 -8 34 -26 223 -26 271 0
62 28 46 75 -43 52 -99 80 -134 134 -170 56 -37 158 -69 220 -69 80 0 175 40
224 95 53 59 73 169 46 253 -17 54 -74 136 -125 181 -25 21 -109 83 -187 137
-290 201 -385 343 -355 530 16 103 76 182 180 239 116 63 219 70 391 25z
m-8282 -10 c181 -34 329 -182 360 -357 22 -126 -24 -270 -121 -376 -65 -71
-120 -110 -186 -131 -41 -14 -76 -15 -217 -9 -92 5 -172 7 -177 5 -16 -6 -13
-461 3 -492 17 -35 65 -56 163 -71 78 -11 84 -14 84 -36 l0 -23 -325 0 -325 0
0 24 c0 20 7 25 38 31 63 12 101 32 122 67 19 32 20 49 20 618 0 375 -4 598
-11 622 -13 49 -49 68 -128 68 -72 0 -91 6 -91 31 0 10 1 20 3 21 3 3 389 13
578 16 86 1 180 -3 210 -8z m1347 -5 c34 -8 86 -27 114 -41 70 -35 158 -126
194 -199 27 -56 29 -68 29 -175 0 -102 -3 -120 -24 -162 -30 -58 -79 -106
-153 -151 l-57 -34 155 -252 c85 -139 168 -272 184 -296 35 -51 97 -103 157
-134 51 -26 60 -38 40 -59 -24 -23 -159 -2 -243 39 -102 48 -153 108 -333 391
l-162 255 -127 6 c-70 3 -130 3 -134 0 -5 -2 -8 -117 -8 -254 0 -334 -2 -331
173 -360 70 -12 77 -15 77 -36 l0 -23 -335 0 -335 0 0 23 c0 20 7 24 66 34 36
6 76 19 90 28 54 35 54 37 54 657 0 526 -1 576 -18 608 -23 47 -71 76 -137 85
-45 5 -55 10 -55 26 0 10 1 20 3 21 3 3 386 13 567 16 108 1 174 -3 218 -13z
m1637 -112 c20 -60 52 -148 70 -198 50 -139 134 -375 235 -660 141 -399 153
-419 270 -456 41 -12 55 -22 55 -35 0 -18 -16 -19 -333 -22 l-333 -2 3 22 c3
21 11 24 77 31 90 10 134 27 156 61 16 23 16 29 2 68 -8 24 -45 128 -81 233
-37 104 -73 200 -82 212 -14 23 -17 23 -218 23 -181 0 -205 -2 -218 -17 -9
-10 -51 -121 -93 -248 -58 -168 -77 -237 -72 -257 9 -36 80 -69 163 -76 59 -4
64 -7 64 -28 l0 -24 -280 0 c-275 0 -280 0 -280 20 0 11 6 22 13 24 6 2 31 9
54 15 49 14 97 51 119 94 9 16 51 132 94 256 43 124 139 404 214 621 75 217
136 407 136 422 l0 28 114 0 113 0 38 -107z m1640 -404 c253 -280 477 -528
498 -552 l37 -42 -2 470 c-3 408 -5 475 -19 505 -26 56 -50 71 -133 82 -63 9
-76 14 -76 30 0 17 15 18 285 18 273 0 285 -1 285 -19 0 -14 -10 -21 -37 -26
-48 -9 -122 -47 -148 -75 -20 -22 -20 -38 -23 -696 -2 -631 -4 -674 -20 -675
-31 -2 -47 2 -66 19 -10 10 -261 286 -557 614 -297 328 -544 600 -549 603 -7
4 -10 -181 -10 -534 l0 -540 30 -35 c29 -33 101 -60 180 -68 17 -2 26 -10 28
-25 l3 -23 -285 0 -286 0 0 25 c0 23 3 25 49 25 57 0 95 25 120 79 14 32 16
106 19 626 2 325 0 600 -3 613 -7 27 -74 61 -122 62 -45 0 -63 9 -63 31 0 18
10 19 203 18 l202 0 460 -510z m1630 492 c0 -9 -19 -19 -50 -26 -69 -16 -90
-29 -106 -67 -20 -47 -21 -1221 -1 -1256 19 -34 72 -62 115 -62 33 0 37 -3 37
-25 l0 -25 -276 0 -275 0 3 23 c2 18 11 23 50 27 54 7 99 36 109 71 4 13 7
295 8 627 1 658 2 648 -56 670 -15 6 -45 13 -65 17 -39 6 -53 18 -43 35 4 7
102 9 278 8 227 -3 272 -5 272 -17z m3566 -601 c231 -649 257 -715 298 -753
28 -26 100 -57 131 -57 15 0 20 -7 20 -25 l0 -25 -336 0 -335 0 3 23 c3 20 11
23 73 30 115 12 175 42 175 88 0 18 -153 457 -171 490 -9 18 -25 19 -218 19
-162 0 -211 -3 -220 -13 -14 -17 -171 -475 -171 -498 0 -41 101 -89 188 -89
38 0 42 -2 42 -25 l0 -25 -281 0 -280 0 3 21 c2 17 15 25 58 36 62 16 114 58
137 113 15 34 227 639 263 750 10 30 54 159 98 287 48 139 78 240 75 253 -5
20 -3 21 112 18 l118 -3 218 -615z m-5411 -1805 l0 -284 26 -14 26 -14 -43
-18 c-24 -9 -50 -19 -56 -22 -9 -3 -13 4 -13 20 l0 26 -52 -24 c-64 -30 -93
-31 -135 -5 -91 55 -95 213 -7 289 42 37 69 45 139 39 l55 -5 0 109 c0 95 -2
109 -17 114 -10 3 -25 8 -33 11 -9 3 5 15 40 33 30 16 58 29 63 30 4 0 7 -128
7 -285z m1630 -15 l0 -300 25 -10 c14 -5 25 -12 25 -15 0 -3 -39 -5 -87 -5
-84 1 -87 2 -61 16 15 8 30 25 33 37 3 12 4 128 3 257 -3 234 -3 234 -26 246
-13 6 -23 15 -22 20 0 8 84 51 103 53 4 1 7 -134 7 -299z m198 -297 c1 -1 14
-9 30 -17 26 -14 23 -15 -60 -16 -49 0 -88 2 -88 5 0 3 11 10 25 15 l25 10 0
260 0 260 -25 10 c-14 5 -25 12 -25 15 0 3 24 17 53 30 l52 25 5 -298 c3 -163
7 -298 8 -299z m-3964 488 c46 -20 76 -60 76 -101 0 -30 -27 -74 -57 -92 l-24
-14 40 -28 c113 -78 76 -240 -62 -275 -58 -14 -361 -15 -352 -1 3 6 18 10 33
10 15 0 38 7 50 16 22 15 22 19 22 239 0 220 0 224 -22 239 -12 9 -34 17 -48
18 -14 1 11 5 55 9 124 10 238 3 289 -20z m2631 10 c-6 -5 -19 -11 -30 -13
-11 -2 -21 -11 -23 -20 -4 -19 147 -388 158 -388 4 0 27 44 50 98 l42 99 -37
89 c-44 105 -48 111 -86 119 -71 16 -18 25 146 25 110 0 175 -4 175 -10 0 -5
-11 -10 -25 -10 -29 0 -43 -20 -81 -112 l-27 -67 48 -115 c26 -64 51 -116 55
-116 10 0 170 373 170 394 0 11 -9 16 -29 16 -17 0 -33 5 -36 10 -4 6 27 10
86 10 92 0 99 -3 57 -24 -17 -8 -50 -77 -132 -269 -134 -317 -130 -314 -201
-139 -27 64 -51 121 -55 125 -4 5 -31 -48 -60 -117 -77 -183 -72 -186 -200
122 -56 136 -107 252 -112 259 -5 6 -23 15 -39 18 -66 15 -35 25 77 25 71 0
114 -4 109 -9z m-1153 -196 l3 -35 55 26 c70 32 115 29 144 -9 18 -24 22 -47
26 -155 l5 -127 35 -17 35 -17 -100 0 c-78 0 -96 2 -80 11 39 21 45 39 45 133
0 155 -26 187 -119 149 l-46 -20 -3 -117 -3 -117 33 -20 33 -20 -95 1 c-80 0
-91 2 -70 12 14 6 28 16 32 22 4 5 8 65 8 133 0 121 0 123 -25 134 -14 6 -25
14 -25 18 0 7 87 49 102 50 4 0 8 -16 10 -35z m2698 1 l0 -35 55 25 c76 35
122 30 149 -15 17 -29 20 -51 19 -140 -1 -58 0 -113 3 -123 3 -9 19 -22 37
-29 l32 -13 -47 -4 c-27 -2 -69 -1 -95 1 -38 3 -43 5 -26 11 31 11 38 37 36
149 -3 145 -24 167 -120 131 l-43 -17 0 -124 0 -123 28 -12 c27 -12 27 -12
-15 -16 -23 -2 -64 -2 -90 0 -46 3 -47 4 -22 15 36 16 39 28 39 159 l0 115
-32 13 -32 14 50 25 c66 35 74 34 74 -7z m-2960 -8 c72 -39 108 -138 80 -222
-25 -77 -124 -129 -215 -112 -43 8 -103 59 -121 103 -69 163 101 316 256 231z
m-812 -3 c31 -26 67 -99 57 -116 -4 -5 -58 -9 -121 -9 l-114 0 0 -31 c0 -42
26 -94 58 -115 35 -23 93 -21 137 5 49 29 40 4 -12 -33 -57 -40 -117 -45 -162
-14 -93 63 -98 224 -9 304 30 27 44 32 95 33 30 1 49 -6 71 -24z m3130 9 c26
-18 62 -84 62 -114 0 -19 -6 -20 -114 -20 -83 0 -115 -3 -119 -12 -7 -23 14
-93 35 -116 41 -43 135 -47 168 -7 7 8 17 15 23 15 23 0 -48 -60 -89 -76 -61
-23 -104 -13 -147 36 -74 81 -54 235 38 291 37 23 112 25 143 3z m1206 -5 c32
-25 56 -69 56 -104 l0 -25 -115 0 -115 0 0 -37 c0 -44 29 -96 61 -114 36 -19
94 -14 135 11 51 32 40 4 -13 -34 -115 -80 -238 -8 -238 139 0 70 31 134 80
165 41 27 114 27 149 -1z m290 15 c11 -4 16 -19 16 -53 l0 -46 -20 33 c-34 56
-92 64 -110 16 -14 -35 -4 -49 53 -86 74 -47 97 -75 97 -115 0 -73 -43 -104
-139 -100 l-61 2 0 49 0 49 23 -34 c26 -39 70 -59 94 -43 54 34 41 81 -37 134
-33 22 -64 49 -70 60 -34 64 17 140 95 140 24 0 50 -3 59 -6z m279 -37 c5 -21
7 -41 4 -44 -4 -3 -21 11 -40 31 -19 20 -41 36 -50 36 -23 0 -47 -28 -47 -55
0 -24 15 -39 97 -95 73 -51 79 -129 11 -170 -25 -15 -48 -19 -95 -17 l-63 2 1
50 c0 43 2 47 12 31 38 -62 88 -83 121 -50 29 28 20 70 -21 101 -110 83 -135
130 -95 179 27 34 53 44 107 41 48 -2 50 -3 58 -40z m-4653 26 c-14 -3 -29 -9
-34 -13 -9 -9 91 -240 104 -240 9 0 80 190 80 213 0 11 -13 24 -32 32 -32 14
-30 14 52 14 66 0 79 -3 59 -10 -31 -11 -26 -2 -141 -288 -114 -286 -112 -283
-146 -279 -39 4 -39 32 0 55 26 15 40 37 66 99 l33 80 -75 156 c-58 121 -81
160 -103 172 -27 15 -24 15 67 14 52 0 84 -3 70 -5z"/>
<path d="M1828 3804 c-13 -13 -10 -722 3 -730 22 -13 202 -9 239 5 158 63 242
192 242 376 1 157 -55 256 -180 317 -62 31 -75 33 -182 36 -63 2 -118 0 -122
-4z"/>
<path d="M3163 3804 c-16 -7 -19 -660 -3 -684 14 -23 206 -20 284 3 149 46
233 221 196 409 -15 78 -31 109 -86 168 -68 73 -142 102 -273 106 -58 2 -112
1 -118 -2z"/>
<path d="M4886 3398 c-42 -123 -76 -229 -76 -235 0 -10 40 -13 165 -13 91 0
165 3 165 8 1 16 -164 462 -170 462 -4 0 -42 -100 -84 -222z"/>
<path d="M11616 3612 c-7 -13 -156 -444 -156 -454 0 -5 74 -8 165 -8 134 0
165 3 165 14 0 15 -143 416 -158 442 -6 10 -12 13 -16 6z"/>
<path d="M6384 1389 c-34 -18 -64 -81 -64 -136 0 -87 58 -148 133 -139 62 7
67 16 67 130 0 95 -2 104 -24 125 -27 25 -82 35 -112 20z"/>
<path d="M4250 1500 l0 -100 55 0 c85 0 135 37 135 100 0 63 -50 100 -135 100
l-55 0 0 -100z"/>
<path d="M4250 1265 c0 -102 2 -117 20 -135 49 -49 149 -18 182 57 47 106 -24
193 -159 193 l-43 0 0 -115z"/>
<path d="M7285 1581 c-3 -11 2 -37 11 -58 l16 -38 18 40 c27 60 25 75 -9 75
-20 0 -32 -6 -36 -19z"/>
<path d="M5497 1389 c-92 -72 -29 -299 83 -299 64 0 105 56 104 145 -1 127
-109 216 -187 154z"/>
<path d="M4731 1396 c-24 -13 -50 -51 -51 -73 0 -9 22 -13 80 -13 74 0 80 1
80 21 0 23 -51 79 -72 79 -7 -1 -24 -7 -37 -14z"/>
<path d="M7849 1381 c-16 -16 -29 -39 -29 -50 0 -19 6 -21 74 -21 41 0 77 4
80 8 9 15 -25 69 -50 81 -36 16 -42 14 -75 -18z"/>
<path d="M9067 1399 c-17 -10 -47 -59 -47 -79 0 -13 147 -14 155 0 10 16 -24
70 -51 80 -31 12 -34 12 -57 -1z"/>
</g>
</svg>
