<?xml version="1.0" encoding="UTF-8"?>
<svg version="1.1" xmlns="http://www.w3.org/2000/svg" width="1294" height="846">
<path d="M0 0 C427.02 0 854.04 0 1294 0 C1294 279.18 1294 558.36 1294 846 C866.98 846 439.96 846 0 846 C0 566.82 0 287.64 0 0 Z " fill="#1D1D1D" transform="translate(0,0)"/>
<path d="M0 0 C-1.15113991 3.45341972 -1.8931744 3.84642358 -4.8125 5.8125 C-8.49674323 8.51119163 -11.01489971 10.78166188 -13 15 C-13.77228211 23.06069451 -11.48025461 29.13871262 -8.5 36.5625 C-8.07074219 37.66658203 -7.64148438 38.77066406 -7.19921875 39.90820312 C-6.14616295 42.61104634 -5.07960855 45.30767832 -4 48 C-3.43224854 47.62053223 -2.86449707 47.24106445 -2.27954102 46.85009766 C25.64613282 28.2057666 25.64613282 28.2057666 32 29 C32 29.66 32 30.32 32 31 C30.81857422 31.58394531 30.81857422 31.58394531 29.61328125 32.1796875 C22.11126431 36.03279442 15.46056562 40.34410728 8.90625 45.65234375 C7.17578632 47.05020487 5.41365167 48.41215719 3.59375 49.69140625 C1.37416212 51.2071937 1.37416212 51.2071937 -1 54 C-1.05136069 57.23572362 -0.88913306 59.02460049 0 62 C4.25583759 76.62944173 6.05283861 95.1115303 -0.44921875 109.26953125 C-7.09343323 120.96803483 -16.19439936 128.73146645 -29 133 C-35.18285504 133.50472286 -40.80871621 133.79850034 -46 130 C-51.29789954 123.38247713 -50.66126568 117.01052224 -50 109 C-46.78949272 87.3992083 -25.97529584 67.35308819 -10 54 C-10.13277344 53.40832031 -10.26554688 52.81664062 -10.40234375 52.20703125 C-10.57894531 51.41683594 -10.75554688 50.62664062 -10.9375 49.8125 C-11.11152344 49.03519531 -11.28554688 48.25789063 -11.46484375 47.45703125 C-12.00511747 44.97650448 -12.50492398 42.48988785 -13 40 C-13.55010742 40.25056152 -14.10021484 40.50112305 -14.66699219 40.75927734 C-76.15221239 68.57522124 -76.15221239 68.57522124 -96 67 C-98.96858157 64.79259319 -99.82865791 63.51402627 -101 60 C-101.16796875 57.94921875 -101.16796875 57.94921875 -101.1875 55.6875 C-101.20167969 54.94886719 -101.21585938 54.21023438 -101.23046875 53.44921875 C-100.94656852 50.43217733 -100.03597902 47.83768166 -99 45 C-99.59611084 45.25056152 -100.19222168 45.50112305 -100.80639648 45.75927734 C-107.04114221 48.37662419 -113.28317346 50.97595805 -119.53076172 53.5625 C-121.79916833 54.50242809 -124.06647065 55.44502687 -126.33251953 56.390625 C-162.99812713 71.65562449 -162.99812713 71.65562449 -174 69 C-176.44508024 66.73382807 -177.53542207 64.92915586 -179 62 C-179.07092842 59.7927077 -179.08415025 57.58332548 -179.0625 55.375 C-179.05347656 54.18648438 -179.04445313 52.99796875 -179.03515625 51.7734375 C-179.01775391 50.40058594 -179.01775391 50.40058594 -179 49 C-185.97990284 51.03051719 -192.32010069 53.9548696 -198.79467773 57.21875 C-203.19742672 59.37726857 -207.01847648 60.73257739 -212 61 C-214.4375 59.5625 -214.4375 59.5625 -216 58 C-215.55958181 53.86006904 -214.81041326 50.19013193 -213.45703125 46.24609375 C-213.18479736 45.44743896 -212.91256348 44.64878418 -212.63208008 43.82592773 C-212.42349365 43.22337158 -212.21490723 42.62081543 -212 42 C-212.50523193 42.27561768 -213.01046387 42.55123535 -213.53100586 42.83520508 C-232.21233539 52.96635427 -251.32926656 61.74457684 -271.3125 69 C-272.30733398 69.36174316 -273.30216797 69.72348633 -274.32714844 70.09619141 C-298.43119296 78.6146788 -298.43119296 78.6146788 -309.4375 74.8125 C-312.84713607 72.4008062 -315.39674773 70.28104766 -316.5 66.109375 C-317.14461011 61.88717876 -316.94353088 58.1934706 -316 54 C-320.24444079 55.86159684 -324.47075115 57.7252843 -328.62109375 59.7890625 C-341.71644688 66.2427851 -341.71644688 66.2427851 -349 66 C-350.734375 64.8046875 -350.734375 64.8046875 -352 63 C-352.1875 60.3125 -352.1875 60.3125 -352 58 C-353.00675781 58.56847656 -354.01351562 59.13695312 -355.05078125 59.72265625 C-365.69251265 65.61153349 -376.44214527 70.22287043 -388 74 C-389.65322266 74.54333984 -389.65322266 74.54333984 -391.33984375 75.09765625 C-398.92213788 77.28583509 -407.16619237 78.19578554 -415 77 C-417.4140625 75.21484375 -417.4140625 75.21484375 -419 73 C-419.59409399 66.86102877 -418.59263169 62.41625576 -415.9765625 56.8046875 C-413.24953146 51.17266471 -413.24953146 51.17266471 -413 45 C-414.19970754 44.31793277 -415.41035205 43.65509103 -416.625 43 C-417.29789063 42.62875 -417.97078125 42.2575 -418.6640625 41.875 C-427.28622283 38.64529446 -437.52716751 44.0802224 -445.50390625 47.50390625 C-447.91893303 48.62372314 -450.30621941 49.76653646 -452.69140625 50.9453125 C-455.9999542 52.56885569 -459.36284527 53.9809666 -462.77734375 55.3671875 C-477.19107071 61.30332517 -477.19107071 61.30332517 -485.76342773 73.64013672 C-486.01552002 74.26549316 -486.2676123 74.89084961 -486.52734375 75.53515625 C-489.76847437 83.16084022 -496.69946657 88.37176709 -504 92 C-508.42079891 93.60063409 -512.29953632 94.52227374 -517 94 C-519.375 92.5 -519.375 92.5 -521 91 C-520.44677342 85.05281426 -518.29819143 81.97162782 -513.80078125 78.11328125 C-508.01635612 73.92706463 -502.0789597 70.13902373 -495.9375 66.5 C-495.18702393 66.05438721 -494.43654785 65.60877441 -493.66333008 65.1496582 C-492.95845459 64.7393335 -492.2535791 64.32900879 -491.52734375 63.90625 C-490.89562256 63.53822266 -490.26390137 63.17019531 -489.61303711 62.79101562 C-488 62 -488 62 -486 62 C-486 56.06 -486 50.12 -486 44 C-493.65737126 45.71502753 -493.65737126 45.71502753 -498.875 50.125 C-502.83274021 54 -502.83274021 54 -505 54 C-505.2475 54.56203125 -505.495 55.1240625 -505.75 55.703125 C-507.2122385 58.38998825 -508.99219075 60.44101936 -511 62.75 C-514.79405606 67.32122561 -518.10323217 72.02528755 -521.25 77.0625 C-521.64960937 77.69833008 -522.04921875 78.33416016 -522.4609375 78.98925781 C-528.28175249 88.46735639 -532.12097858 97.89017409 -535.25 108.5625 C-536.02420254 111.12908178 -536.80125245 113.69445046 -537.5859375 116.2578125 C-537.78305328 116.90211716 -537.98016907 117.54642181 -538.18325806 118.21025085 C-540.23263491 124.85019647 -542.51631086 131.40135583 -544.875 137.9375 C-545.24399414 138.96625244 -545.61298828 139.99500488 -545.99316406 141.05493164 C-547.74762041 145.86435326 -549.57316581 150.48975156 -552 155 C-553.9375 154.625 -553.9375 154.625 -556 154 C-559.01305651 147.97388698 -552.91748736 135.11944961 -551 129 C-547.4653297 118.95106998 -543.44329006 109.00742643 -538.82421875 99.40625 C-528.84203061 78.61539918 -525.33204998 55.52818006 -521.22045898 32.9987793 C-521.07880814 32.22326721 -520.93715729 31.44775513 -520.79121399 30.64874268 C-520.52569801 29.1882808 -520.26245944 27.72740242 -520.00187683 26.26605225 C-519.48720535 23.42005339 -518.91636566 20.74909699 -518 18 C-516.68 18.33 -515.36 18.66 -514 19 C-514.48870362 27.86662489 -515.93053316 36.28225125 -517.875 44.9375 C-518.13152344 46.10990234 -518.38804687 47.28230469 -518.65234375 48.49023438 C-520.37746777 56.33998213 -522.17943695 64.17190426 -524 72 C-523.42241943 71.20198975 -522.84483887 70.40397949 -522.24975586 69.58178711 C-502.94229229 43.06973906 -502.94229229 43.06973906 -489.125 39.75 C-486 40 -486 40 -483.1875 42.125 C-479.52970054 46.93239358 -478.70188469 51.03398015 -478 57 C-477.13955078 56.5978125 -477.13955078 56.5978125 -476.26171875 56.1875 C-463.10707332 50.11919619 -449.84209551 44.31523158 -436 40 C-433.5787578 39.17748978 -431.16000599 38.34813393 -428.7421875 37.515625 C-427 37 -427 37 -425 37 C-425.061875 35.824375 -425.12375 34.64875 -425.1875 33.4375 C-425.16088916 28.4169223 -423.99171653 24.39005984 -420.7109375 20.453125 C-417.92368357 17.80001698 -416.07175154 17.00837101 -412.25 16.5625 C-409 17 -409 17 -407 19 C-406.51942394 23.16499255 -406.71230345 25.45657318 -408.6875 29.1875 C-410.94174372 31.92914776 -413.07436214 33.99824778 -416 36 C-416.66 36 -417.32 36 -418 36 C-416.47306036 39.05387928 -413.96382675 39.65962073 -410.9375 41.125 C-409.83277344 41.66382813 -408.72804688 42.20265625 -407.58984375 42.7578125 C-406.73519531 43.16773438 -405.88054687 43.57765625 -405 44 C-404.51876897 48.71606407 -406.052395 51.30533165 -408.4375 55.3125 C-411.31091716 60.42660205 -413 64.1336523 -413 70 C-411.89430074 71.33397559 -411.89430074 71.33397559 -409.10546875 71.08984375 C-392.79777621 70.45574603 -378.5604974 65.50283302 -363.875 58.5625 C-362.93970459 58.1205127 -362.00440918 57.67852539 -361.04077148 57.22314453 C-352.79841778 53.17367549 -345.53839108 48.11130351 -338.4375 42.3125 C-333.3338541 38.30893325 -328.23142785 35.57025197 -321.8125 34.4375 C-317.65522244 35.26895551 -315.92984688 36.9306366 -313 40 C-313 41.32 -313 42.64 -313 44 C-314.9375 43.1875 -314.9375 43.1875 -317 42 C-317.33 41.01 -317.66 40.02 -318 39 C-328.655143 41.96946608 -337.34233438 47.06471193 -344 56 C-344.33 56.66 -344.66 57.32 -345 58 C-345.66 58 -346.32 58 -347 58 C-347 58.99 -347 59.98 -347 61 C-338.29513434 58.13056726 -330.06027365 54.78602327 -321.86352539 50.6796875 C-317.91548122 48.73973674 -314.45844181 47.35341307 -310 47 C-309.67 47.33 -309.34 47.66 -309 48 C-309.28753309 51.56011364 -309.60341989 55.10873594 -310.03515625 58.65429688 C-310.48202256 63.49146651 -310.48202256 63.49146651 -307.90625 67.5078125 C-299.29497482 71.92919304 -288.96648947 68.79152288 -280.21386719 66.13110352 C-275.55104217 64.63136778 -271.01900754 62.84727415 -266.48242188 61.00439453 C-264.20769637 60.08403451 -261.92424099 59.1941628 -259.6328125 58.31640625 C-246.86360094 53.37207015 -234.48659396 47.68522901 -222.10546875 41.85546875 C-209.4860176 35.93769005 -209.4860176 35.93769005 -206.5625 36.3125 C-206.046875 36.539375 -205.53125 36.76625 -205 37 C-205.73707311 43.48624333 -207.36521376 49.68883949 -209 56 C-208.04746338 55.51587646 -208.04746338 55.51587646 -207.07568359 55.02197266 C-204.17759601 53.5520508 -201.27634628 52.08847858 -198.375 50.625 C-197.37597656 50.11710937 -196.37695312 49.60921875 -195.34765625 49.0859375 C-194.37441406 48.59609375 -193.40117188 48.10625 -192.3984375 47.6015625 C-191.50817871 47.15119629 -190.61791992 46.70083008 -189.70068359 46.23681641 C-184.16952859 43.70374542 -180.00889621 42.1859936 -174 44 C-169.927896 49.0222616 -170.29139374 55.79029894 -170 62 C-165.42352541 63.3684992 -161.68538318 62.56986499 -157.1875 61.375 C-156.39142334 61.16552734 -155.59534668 60.95605469 -154.77514648 60.74023438 C-142.03530459 57.13357489 -129.84863765 51.67191344 -117.66455078 46.54150391 C-113.30607729 44.7080994 -108.93676879 42.90142334 -104.56616211 41.09716797 C-101.30362302 39.70226257 -98.11536428 38.17845728 -94.9375 36.6015625 C-92.59246322 35.8734664 -91.29081411 36.21253265 -89 37 C-89.49255501 40.15235206 -90.28841319 42.70901577 -91.5 45.6875 C-93.54586267 50.92690439 -94 56.40316183 -94 62 C-76.16741728 59.1959801 -59.63084966 53.34403059 -42.8515625 46.86328125 C-41.33731084 46.2804138 -39.82298585 45.69773684 -38.30859375 45.11523438 C-35.95099337 44.2083319 -33.59380117 43.3004359 -31.23779297 42.3894043 C-28.94355499 41.50261766 -26.6477309 40.62005522 -24.3515625 39.73828125 C-23.28912827 39.3258593 -23.28912827 39.3258593 -22.20523071 38.90510559 C-17.22757052 37 -17.22757052 37 -15 37 C-15.30035156 36.11699219 -15.60070312 35.23398437 -15.91015625 34.32421875 C-18.89130245 24.91592345 -20.47630611 16.77604016 -16.125 7.5 C-14.09626718 3.7300713 -12.08736019 1.4727653 -8.125 -0.25 C-4.91780163 -1.01972761 -3.12604316 -0.91942446 0 0 Z " fill="#AB9059" transform="translate(805,307)"/>
<path d="M0 0 C0 0.99 0 1.98 0 3 C-1.609375 4.17578125 -1.609375 4.17578125 -3.75 5.3125 C-7.75052912 7.71707335 -10.05087601 9.61447101 -12 14 C-13.01908435 22.26792837 -11.05969929 28.95976749 -8 36.5625 C-7.24770816 38.50041396 -6.4975912 40.43917407 -5.75 42.37890625 C-5.41484375 43.2201001 -5.0796875 44.06129395 -4.734375 44.92797852 C-4 47 -4 47 -4 49 C-2.93523438 48.2265625 -1.87046875 47.453125 -0.7734375 46.65625 C24.71494436 28.29847612 24.71494436 28.29847612 32 29 C32.495 29.99 32.495 29.99 33 31 C32.27296875 31.32871094 31.5459375 31.65742188 30.796875 31.99609375 C22.74483218 35.80532939 15.94969414 40.45701338 9 46 C8.01773438 46.77730469 7.03546875 47.55460937 6.0234375 48.35546875 C3.67301013 50.22587926 1.33192161 52.10660347 -1 54 C-0.82609741 54.82407349 -0.82609741 54.82407349 -0.64868164 55.66479492 C-0.11968524 58.17230658 0.40891088 60.67990246 0.9375 63.1875 C1.21110352 64.48397461 1.21110352 64.48397461 1.49023438 65.80664062 C1.8436458 67.48373846 2.19486236 69.16130057 2.54370117 70.83935547 C2.87850401 72.42469798 3.2371966 74.00504455 3.609375 75.58203125 C5.74057516 88.77416024 4.363748 102.42763389 -2.8125 113.875 C-9.28975574 122.71055832 -17.476023 129.49200767 -28 133 C-33.6081545 133.6491269 -38.44831795 133.76222978 -43.5625 131.25 C-47.50713212 127.60880112 -49.71500403 124.79296055 -50.2734375 119.3203125 C-50.89524199 99.75738674 -38.80752787 83.73857156 -26 70 C-12.26740947 55.63370474 -12.26740947 55.63370474 -9 54 C-10.32711517 49.26196603 -11.74480112 44.59294786 -13.53515625 40.0078125 C-17.24306654 30.41577689 -20.45299841 21.35899523 -17.0390625 11.1171875 C-14.52801057 5.63125876 -11.73721059 1.47223448 -5.9375 -0.8125 C-3.7291975 -1.02620669 -2.10175419 -0.67556385 0 0 Z " fill="#272726" transform="translate(869,307)"/>
<path d="M0 0 C2.67124247 8.64576246 4.40138562 16.85383123 4.4375 25.9375 C4.44716797 26.70489502 4.45683594 27.47229004 4.46679688 28.26293945 C4.26091617 42.30370102 -3.2982373 53.41929316 -13 63 C-18.57859499 67.53260843 -24.77236795 69.68764851 -31.875 70.375 C-35 70 -35 70 -36.875 68.6875 C-40.15291222 63.77063167 -39.37136219 57.85255134 -38.64453125 52.26953125 C-36.00833784 39.1593345 -27.63504592 27.91369695 -19 18 C-18.2678125 17.15824219 -17.535625 16.31648438 -16.78125 15.44921875 C-3.09028832 0 -3.09028832 0 0 0 Z " fill="#252525" transform="translate(799,366)"/>
<path d="M0 0 C0 0.99 0 1.98 0 3 C-1.609375 4.17578125 -1.609375 4.17578125 -3.75 5.3125 C-7.75052912 7.71707335 -10.05087601 9.61447101 -12 14 C-13.01908435 22.26792837 -11.05969929 28.95976749 -8 36.5625 C-7.24770816 38.50041396 -6.4975912 40.43917407 -5.75 42.37890625 C-5.41484375 43.2201001 -5.0796875 44.06129395 -4.734375 44.92797852 C-4 47 -4 47 -4 49 C-2.93523438 48.2265625 -1.87046875 47.453125 -0.7734375 46.65625 C24.71494436 28.29847612 24.71494436 28.29847612 32 29 C32.495 29.99 32.495 29.99 33 31 C32.27296875 31.32871094 31.5459375 31.65742188 30.796875 31.99609375 C22.74483218 35.80532939 15.94969414 40.45701338 9 46 C8.01773438 46.77730469 7.03546875 47.55460937 6.0234375 48.35546875 C3.67301013 50.22587926 1.33192161 52.10660347 -1 54 C-0.82609741 54.82407349 -0.82609741 54.82407349 -0.64868164 55.66479492 C-0.11968524 58.17230658 0.40891088 60.67990246 0.9375 63.1875 C1.21110352 64.48397461 1.21110352 64.48397461 1.49023438 65.80664062 C1.8436458 67.48373846 2.19486236 69.16130057 2.54370117 70.83935547 C2.87850401 72.42469798 3.2371966 74.00504455 3.609375 75.58203125 C5.74057516 88.77416024 4.363748 102.42763389 -2.8125 113.875 C-9.28975574 122.71055832 -17.476023 129.49200767 -28 133 C-33.6081545 133.6491269 -38.44831795 133.76222978 -43.5625 131.25 C-47.50713212 127.60880112 -49.71500403 124.79296055 -50.2734375 119.3203125 C-50.89524199 99.75738674 -38.80752787 83.73857156 -26 70 C-12.26740947 55.63370474 -12.26740947 55.63370474 -9 54 C-10.32711517 49.26196603 -11.74480112 44.59294786 -13.53515625 40.0078125 C-17.24306654 30.41577689 -20.45299841 21.35899523 -17.0390625 11.1171875 C-14.52801057 5.63125876 -11.73721059 1.47223448 -5.9375 -0.8125 C-3.7291975 -1.02620669 -2.10175419 -0.67556385 0 0 Z M-7 59 C-21.7096257 73.08450267 -33.60303458 86.32152293 -42 105 C-42.38414062 105.80179688 -42.76828125 106.60359375 -43.1640625 107.4296875 C-44.28052309 110.86254297 -44.33920894 113.95833986 -44.375 117.5625 C-44.40335938 118.86316406 -44.43171875 120.16382813 -44.4609375 121.50390625 C-44.27209302 125.01661669 -44.27209302 125.01661669 -42.26953125 127.46484375 C-38.83642725 129.78706384 -36.60671759 129.19546101 -32.6484375 128.59765625 C-22.96708461 126.41292617 -15.17287546 121.06223544 -9.76171875 112.68359375 C-0.35538079 97.19814284 0.72350535 83.94395927 -3.40063477 66.45898438 C-4.43775861 62.32561076 -4.43775861 62.32561076 -7 59 Z " fill="#A18450" transform="translate(869,307)"/>
<path d="M0 0 C3.01934244 2.03805615 3.79605368 3.25219683 4.75 6.75 C4.8325 7.4925 4.915 8.235 5 9 C4.01 9 3.02 9 2 9 C0.3125 7 0.3125 7 -1 5 C-10.21107066 6.06755351 -18.42426262 11.56225384 -24.6640625 18.2890625 C-26.53463283 20.6847052 -27.83911215 23.20021166 -29 26 C-20.87203526 23.38809223 -13.28018631 19.85591428 -5.6394043 16.08618164 C4.0684534 11.35615113 4.0684534 11.35615113 9 13 C8.835 14.299375 8.67 15.59875 8.5 16.9375 C8.32414934 18.62406769 8.15788439 20.31165568 8 22 C7.92007813 22.82371094 7.84015625 23.64742188 7.7578125 24.49609375 C7.71398437 25.28113281 7.67015625 26.06617188 7.625 26.875 C7.57601562 27.59429687 7.52703125 28.31359375 7.4765625 29.0546875 C7.85694641 31.2382284 7.85694641 31.2382284 10.17578125 32.72265625 C23.66695634 38.82447403 41.9556242 29.60368692 54.75 24.875 C58.79834918 23.34671351 62.73459978 21.71489648 66.5625 19.6875 C70.28827307 17.85848413 72.91595398 17.34033717 77 17 C77 16.34 77 15.68 77 15 C77.7528125 14.731875 78.505625 14.46375 79.28125 14.1875 C86.71083805 11.44648693 93.66749477 8.29584886 100.6171875 4.50390625 C105.53157031 1.9137606 105.53157031 1.9137606 108.21459961 2.40771484 C108.80378174 2.60316895 109.39296387 2.79862305 110 3 C86.54545455 18 86.54545455 18 81 18 C81 18.66 81 19.32 81 20 C80.14668091 20.33849976 80.14668091 20.33849976 79.27612305 20.68383789 C74.3854967 22.6312256 69.50899744 24.60919686 64.64453125 26.62109375 C21.76420937 44.32711926 21.76420937 44.32711926 7.5625 39.9375 C4.22038884 37.41053791 2.19551777 34.99187998 1 31 C0.89065794 28.91795888 0.86159236 26.83067845 0.8984375 24.74609375 C0.91310059 23.66900146 0.92776367 22.59190918 0.94287109 21.48217773 C0.96172363 20.66305908 0.98057617 19.84394043 1 19 C0.35039307 19.32798584 -0.29921387 19.65597168 -0.96850586 19.99389648 C-3.95114939 21.48959318 -6.94403148 22.96359573 -9.9375 24.4375 C-10.95908203 24.95376953 -11.98066406 25.47003906 -13.03320312 26.00195312 C-19.1461594 28.99007552 -24.15039213 30.95238604 -31 31 C-31.99 30.34 -32.98 29.68 -34 29 C-34.83762813 24.43958019 -34.02940536 21.48982069 -31.6875 17.625 C-24.72495802 7.99595258 -12.70927345 -2.47680723 0 0 Z " fill="#947443" transform="translate(930,342)"/>
<path d="M0 0 C6.73740602 0.06174812 6.73740602 0.06174812 10.625 2.4375 C12.63479855 6.07059738 12.69725121 8.2751972 12.25 12.375 C12.023125 13.096875 11.79625 13.81875 11.5625 14.5625 C11.459375 15.160625 11.35625 15.75875 11.25 16.375 C11.72953125 16.96152344 12.2090625 17.54804688 12.703125 18.15234375 C15.47711985 22.13821008 14.87005591 26.71110123 14.25 31.375 C13.21150731 34.00177562 12.20938446 35.24766831 10.25 37.375 C6.71615441 38.55294853 3.84722447 38.50764317 0.125 38.5 C-1.76605469 38.50386719 -1.76605469 38.50386719 -3.6953125 38.5078125 C-6.75 38.375 -6.75 38.375 -7.75 37.375 C-7.85095564 34.72043807 -7.88970998 32.09244824 -7.8828125 29.4375 C-7.88376923 28.642229 -7.88472595 27.84695801 -7.88571167 27.02758789 C-7.88639343 25.3429354 -7.88453943 23.65828029 -7.88037109 21.97363281 C-7.87502275 19.38600803 -7.88031619 16.79855684 -7.88671875 14.2109375 C-7.88605797 12.57812461 -7.8847768 10.94531184 -7.8828125 9.3125 C-7.88483673 8.53334229 -7.88686096 7.75418457 -7.88894653 6.95141602 C-7.85778926 -0.14009986 -6.95237865 0.18751229 0 0 Z " fill="#845F32" transform="translate(334.75,484.625)"/>
<path d="M0 0 C0.66 0 1.32 0 2 0 C5.37139226 8.8899282 8.21812532 17.91330279 11 27 C14.17037093 25.41481453 14.61145377 22.25059976 15.6875 19.0625 C16.03010864 18.05110962 16.03010864 18.05110962 16.37963867 17.01928711 C18.12682948 11.45438167 18.36024932 6.72382139 17 1 C18.32 0.67 19.64 0.34 21 0 C21.20681396 0.74685059 21.41362793 1.49370117 21.62670898 2.26318359 C22.56151933 5.63438113 23.49946911 9.00469722 24.4375 12.375 C24.92573242 14.1384375 24.92573242 14.1384375 25.42382812 15.9375 C25.73642578 17.05898438 26.04902344 18.18046875 26.37109375 19.3359375 C26.8031311 20.89127197 26.8031311 20.89127197 27.24389648 22.47802734 C27.9107818 24.96449374 27.9107818 24.96449374 29 27 C32.465 14.625 32.465 14.625 36 2 C37.65 1.67 39.3 1.34 41 1 C40.02503579 7.46036892 38.2875985 13.68187977 36.55712891 19.97021484 C36.00413907 21.98492014 35.46098525 24.00211872 34.91796875 26.01953125 C34.57378906 27.27121094 34.22960937 28.52289062 33.875 29.8125 C33.56304688 30.95332031 33.25109375 32.09414063 32.9296875 33.26953125 C32 36 32 36 30 38 C27.875 37.625 27.875 37.625 26 37 C25.32678716 34.75194998 24.66165877 32.50147776 24 30.25 C23.62875 28.99703125 23.2575 27.7440625 22.875 26.453125 C22 23 22 23 22 19 C21.34 19 20.68 19 20 19 C19.88269531 19.51175781 19.76539063 20.02351563 19.64453125 20.55078125 C18.78658972 23.81095906 17.75756292 26.99056279 16.6875 30.1875 C16.27886719 31.43917969 15.87023437 32.69085937 15.44921875 33.98046875 C14.97097656 34.97691406 14.49273438 35.97335937 14 37 C11.90942383 37.6887207 11.90942383 37.6887207 10 38 C7.00552885 30.83793539 4.47031157 23.60543106 2.1875 16.1875 C1.86330078 15.17751953 1.53910156 14.16753906 1.20507812 13.12695312 C0.90408203 12.15048828 0.60308594 11.17402344 0.29296875 10.16796875 C0.0199292 9.29422607 -0.25311035 8.4204834 -0.53442383 7.52026367 C-1.05443921 4.70530886 -0.73268417 2.74625671 0 0 Z " fill="#E2DA98" transform="translate(626,485)"/>
<path d="M0 0 C1.32 0.33 2.64 0.66 4 1 C4 12.88 4 24.76 4 37 C2.02 37.495 2.02 37.495 0 38 C-1.98316344 34.39801864 -3.96083989 30.79305369 -5.9375 27.1875 C-6.50146484 26.16333984 -7.06542969 25.13917969 -7.64648438 24.08398438 C-8.18466797 23.10107422 -8.72285156 22.11816406 -9.27734375 21.10546875 C-10.02359009 19.74651489 -10.02359009 19.74651489 -10.78491211 18.36010742 C-12 16 -12 16 -13 13 C-13.33 21.25 -13.66 29.5 -14 38 C-15.32 37.67 -16.64 37.34 -18 37 C-18 25.12 -18 13.24 -18 1 C-13 2 -13 2 -11.42260742 4.13305664 C-10.98795166 5.04949951 -10.5532959 5.96594238 -10.10546875 6.91015625 C-9.62529297 7.89951172 -9.14511719 8.88886719 -8.65039062 9.90820312 C-8.16763672 10.94912109 -7.68488281 11.99003906 -7.1875 13.0625 C-6.68541016 14.10728516 -6.18332031 15.15207031 -5.66601562 16.22851562 C-4.42750511 18.81169469 -3.20651673 21.40176258 -2 24 C-1.97494385 23.30849854 -1.9498877 22.61699707 -1.92407227 21.90454102 C-1.80847839 18.79032134 -1.68558758 15.67643211 -1.5625 12.5625 C-1.52318359 11.47388672 -1.48386719 10.38527344 -1.44335938 9.26367188 C-1.40146484 8.22919922 -1.35957031 7.19472656 -1.31640625 6.12890625 C-1.27974854 5.17056885 -1.24309082 4.21223145 -1.20532227 3.22485352 C-1 1 -1 1 0 0 Z " fill="#A9915C" transform="translate(828,485)"/>
<path d="M0 0 C1.31355469 -0.02578125 2.62710938 -0.0515625 3.98046875 -0.078125 C8.05709212 0.27094367 10.4079212 1.01054373 13.8125 3.25 C17.01357924 8.16594312 16.22114731 14.03557816 16.25 19.6875 C16.28287109 20.81994141 16.31574219 21.95238281 16.34960938 23.11914062 C16.4097984 32.40466504 16.4097984 32.40466504 13.41015625 35.47265625 C9.08690333 38.43067141 5.86541109 38.40166591 0.75 38.375 C0.00427734 38.37886719 -0.74144531 38.38273438 -1.50976562 38.38671875 C-7.06086499 38.37663501 -7.06086499 38.37663501 -8.1875 37.25 C-8.28845564 34.59543807 -8.32720998 31.96744824 -8.3203125 29.3125 C-8.32126923 28.517229 -8.32222595 27.72195801 -8.32321167 26.90258789 C-8.32389343 25.2179354 -8.32203943 23.53328029 -8.31787109 21.84863281 C-8.31252275 19.26100803 -8.31781619 16.67355684 -8.32421875 14.0859375 C-8.32355797 12.45312461 -8.3222768 10.82031184 -8.3203125 9.1875 C-8.32233673 8.40834229 -8.32436096 7.62918457 -8.32644653 6.82641602 C-8.29431027 -0.48792033 -6.72528857 0.05099745 0 0 Z M-4.1875 5.25 C-4.1875 14.82 -4.1875 24.39 -4.1875 34.25 C5.84693626 35.18576202 5.84693626 35.18576202 9.96484375 32.37890625 C12.58746046 27.93764623 12.51016866 24.25449822 12.375 19.1875 C12.38595703 18.28966797 12.39691406 17.39183594 12.40820312 16.46679688 C12.3600131 10.19462792 12.3600131 10.19462792 7.8125 5.25 C3.8525 5.25 -0.1075 5.25 -4.1875 5.25 Z " fill="#CBBC7E" transform="translate(555.1875,484.75)"/>
<path d="M0 0 C0.99 0 1.98 0 3 0 C3 12.54 3 25.08 3 38 C-1 37 -1 37 -2.34033203 35.20581055 C-2.72560059 34.44051025 -3.11086914 33.67520996 -3.5078125 32.88671875 C-3.93707031 32.05076172 -4.36632812 31.21480469 -4.80859375 30.35351562 C-5.46021484 29.03383789 -5.46021484 29.03383789 -6.125 27.6875 C-6.78822266 26.38522461 -6.78822266 26.38522461 -7.46484375 25.05664062 C-8.65665513 22.71082457 -9.83163779 20.35755977 -11 18 C-11.66 16.68 -12.32 15.36 -13 14 C-13.33 21.59 -13.66 29.18 -14 37 C-15.32 37 -16.64 37 -18 37 C-18 25.45 -18 13.9 -18 2 C-16.68 1.67 -15.36 1.34 -14 1 C-13.70754395 1.59014893 -13.41508789 2.18029785 -13.11376953 2.78833008 C-11.78628294 5.46410284 -10.4556783 8.13831316 -9.125 10.8125 C-8.66480469 11.74126953 -8.20460938 12.67003906 -7.73046875 13.62695312 C-7.06337891 14.9659668 -7.06337891 14.9659668 -6.3828125 16.33203125 C-5.97434082 17.15421143 -5.56586914 17.9763916 -5.14501953 18.82348633 C-3.94758429 21.19077435 -3.94758429 21.19077435 -2 24 C-1.97494385 23.30849854 -1.9498877 22.61699707 -1.92407227 21.90454102 C-1.80847839 18.79032134 -1.68558758 15.67643211 -1.5625 12.5625 C-1.52318359 11.47388672 -1.48386719 10.38527344 -1.44335938 9.26367188 C-1.40146484 8.22919922 -1.35957031 7.19472656 -1.31640625 6.12890625 C-1.27974854 5.17056885 -1.24309082 4.21223145 -1.20532227 3.22485352 C-1 1 -1 1 0 0 Z " fill="#C3AF72" transform="translate(519,485)"/>
<path d="M0 0 C1.57394531 -0.05607422 1.57394531 -0.05607422 3.1796875 -0.11328125 C6.86761841 0.41985465 7.89385034 1.37598689 10.125 4.3125 C12.84420876 8.9936695 12.42069746 14.05729224 12.375 19.3125 C12.38273437 20.20195312 12.39046875 21.09140625 12.3984375 22.0078125 C12.38111066 27.81230534 12.01643997 31.97972403 8.25 36.625 C3.35971659 39.26575304 -1.44468609 39.19126449 -6.875 38.3125 C-10.6090515 35.67669894 -12.05194667 33.70692805 -12.875 29.3125 C-13.17048082 25.50378963 -13.19797832 21.69386418 -13.25 17.875 C-13.28738281 16.83794922 -13.32476562 15.80089844 -13.36328125 14.73242188 C-13.45183489 7.07253164 -13.45183489 7.07253164 -10.4765625 3.15234375 C-6.6937708 0.47712619 -4.62028577 0.10731715 0 0 Z M-8.875 8.3125 C-9.49550716 11.98695137 -9.47833978 15.59367773 -9.4375 19.3125 C-9.46134766 20.31023437 -9.48519531 21.30796875 -9.50976562 22.3359375 C-9.57805234 28.1761826 -9.57805234 28.1761826 -6.5625 32.96875 C-3.03279593 34.73360203 -0.77163475 34.87928324 3.125 34.3125 C5.52800457 33.0416581 5.52800457 33.0416581 7.125 30.3125 C7.70154008 26.63806929 7.63682293 23.02385158 7.5625 19.3125 C7.56958984 18.31476563 7.57667969 17.31703125 7.58398438 16.2890625 C7.61912631 9.70204513 7.61912631 9.70204513 4.125 4.3125 C1.993774 3.68252798 1.993774 3.68252798 -0.3125 3.8125 C-1.45525391 3.79703125 -1.45525391 3.79703125 -2.62109375 3.78125 C-5.98265872 4.57357727 -6.9527027 5.39472731 -8.875 8.3125 Z " fill="#AC945D" transform="translate(465.875,484.6875)"/>
<path d="M0 0 C2.38185385 2.09603139 2.29692208 4.32085388 2.5625 7.375 C-0.30474686 6.80155063 -1.2989515 6.5135485 -3.4375 4.375 C-6.12589385 4.10508094 -8.72891936 4.28762643 -11.4375 4.375 C-11.4375 6.685 -11.4375 8.995 -11.4375 11.375 C-10.46167969 11.90609375 -9.48585938 12.4371875 -8.48046875 12.984375 C-7.19505439 13.69745158 -5.90991232 14.41101917 -4.625 15.125 C-3.98240234 15.47304688 -3.33980469 15.82109375 -2.67773438 16.1796875 C0.83959129 18.14793192 3.58337788 19.8039753 5.5625 23.375 C6.13170689 27.7660246 5.85265343 29.85272383 3.6875 33.75 C1.37345786 36.60852264 0.70685775 37.24600637 -2.86328125 37.6484375 C-10.68145689 37.92350187 -10.68145689 37.92350187 -14.625 35.0625 C-16.4375 32.375 -16.4375 32.375 -16.4375 29.375 C-13.06287285 29.92223683 -11.35515 30.4299 -8.4375 32.375 C-5.0271024 32.58814985 -2.69218201 32.459894 0.5625 31.375 C0.32743999 28.02539485 0.15453717 26.26500377 -1.4375 23.375 C-4.34048214 21.2892797 -7.2906295 19.69832778 -10.4921875 18.11328125 C-13.70503671 16.21710367 -15.4011778 14.48256279 -17.4375 11.375 C-17.9375 7.8125 -17.9375 7.8125 -17.4375 4.375 C-13.06424111 -1.35547716 -6.63483555 -1.70123989 0 0 Z " fill="#825F33" transform="translate(955.4375,485.625)"/>
<path d="M0 0 C3 1.1875 3 1.1875 5 3 C5.3125 5.6875 5.3125 5.6875 5 8 C2.13275314 7.42655063 1.1385485 7.1385485 -1 5 C-5.34194936 5.09695116 -5.34194936 5.09695116 -9 7 C-9.04063832 8.66617115 -9.042721 10.33388095 -9 12 C-8.02417969 12.51949219 -7.04835938 13.03898437 -6.04296875 13.57421875 C-4.75744402 14.27797316 -3.47230797 14.98243789 -2.1875 15.6875 C-1.54490234 16.02716797 -0.90230469 16.36683594 -0.24023438 16.71679688 C3.70674304 18.90501752 6.19463755 20.67786832 8 25 C8.48449857 29.48918208 7.77869779 33.00229346 5 36.5625 C0.00558041 38.95565939 -4.66758897 38.64513497 -9.9375 37.1875 C-12 36 -12 36 -14 33 C-14 32.01 -14 31.02 -14 30 C-10.62537285 30.54723683 -8.91765 31.0549 -6 33 C-2.95804573 33.33340471 -2.95804573 33.33340471 0 33 C2.21189267 31.11886662 2.21189267 31.11886662 2.75 28.25 C2.34568153 24.92414533 2.34568153 24.92414533 -0.0234375 23.44921875 C-1.79260162 22.42119095 -3.57879678 21.42204387 -5.37890625 20.44921875 C-9.14224747 18.3684444 -13.03291837 15.93416327 -15 12 C-15.375 9.1875 -15.375 9.1875 -15 6 C-10.41384101 0.56902225 -7.03111967 -0.73941029 0 0 Z " fill="#907041" transform="translate(910,485)"/>
<path d="M0 0 C1.58206057 0.00667536 3.16410534 0.0186375 4.74609375 0.03515625 C5.55240234 0.03966797 6.35871094 0.04417969 7.18945312 0.04882812 C9.18753131 0.06065107 11.18557158 0.07858711 13.18359375 0.09765625 C12.85359375 1.74765625 12.52359375 3.39765625 12.18359375 5.09765625 C7.89359375 5.09765625 3.60359375 5.09765625 -0.81640625 5.09765625 C-0.81640625 9.05765625 -0.81640625 13.01765625 -0.81640625 17.09765625 C3.14359375 17.09765625 7.10359375 17.09765625 11.18359375 17.09765625 C10.85359375 18.41765625 10.52359375 19.73765625 10.18359375 21.09765625 C6.55359375 21.09765625 2.92359375 21.09765625 -0.81640625 21.09765625 C-0.81640625 25.38765625 -0.81640625 29.67765625 -0.81640625 34.09765625 C3.80359375 34.09765625 8.42359375 34.09765625 13.18359375 34.09765625 C13.18359375 35.41765625 13.18359375 36.73765625 13.18359375 38.09765625 C7.24359375 38.09765625 1.30359375 38.09765625 -4.81640625 38.09765625 C-4.83931464 32.84654429 -4.85924188 27.59560447 -4.87133789 22.34448242 C-4.87637843 20.55671604 -4.88321079 18.7689538 -4.8918457 16.98120117 C-4.90392355 14.41714457 -4.90963719 11.85314228 -4.9140625 9.2890625 C-4.91922379 8.48489395 -4.92438507 7.6807254 -4.92970276 6.85218811 C-4.9298984 4.9336391 -4.87842608 3.01520257 -4.81640625 1.09765625 C-3.81640625 0.09765625 -3.81640625 0.09765625 0 0 Z " fill="#A38651" transform="translate(860.81640625,484.90234375)"/>
<path d="M0 0 C1.58206057 0.00667536 3.16410534 0.0186375 4.74609375 0.03515625 C5.55240234 0.03966797 6.35871094 0.04417969 7.18945312 0.04882812 C9.18753131 0.06065107 11.18557158 0.07858711 13.18359375 0.09765625 C13.18359375 1.41765625 13.18359375 2.73765625 13.18359375 4.09765625 C8.56359375 4.09765625 3.94359375 4.09765625 -0.81640625 4.09765625 C-0.81640625 8.38765625 -0.81640625 12.67765625 -0.81640625 17.09765625 C3.14359375 17.09765625 7.10359375 17.09765625 11.18359375 17.09765625 C10.85359375 18.41765625 10.52359375 19.73765625 10.18359375 21.09765625 C6.55359375 21.09765625 2.92359375 21.09765625 -0.81640625 21.09765625 C-0.81640625 25.38765625 -0.81640625 29.67765625 -0.81640625 34.09765625 C3.47359375 34.09765625 7.76359375 34.09765625 12.18359375 34.09765625 C12.51359375 35.41765625 12.84359375 36.73765625 13.18359375 38.09765625 C10.37103094 38.12449937 7.55872134 38.14441813 4.74609375 38.16015625 C3.94365234 38.16853516 3.14121094 38.17691406 2.31445312 38.18554688 C0.27064154 38.19417055 -1.77324527 38.14993775 -3.81640625 38.09765625 C-5.60471073 36.30935177 -4.94489336 33.90184473 -4.95535278 31.52124023 C-4.95332855 30.74208252 -4.95130432 29.9629248 -4.94921875 29.16015625 C-4.95017548 28.36488525 -4.9511322 27.56961426 -4.95211792 26.75024414 C-4.95279968 25.06559165 -4.95094568 23.38093654 -4.94677734 21.69628906 C-4.941429 19.10866428 -4.94672244 16.52121309 -4.953125 13.93359375 C-4.95246422 12.30078086 -4.95118305 10.66796809 -4.94921875 9.03515625 C-4.95124298 8.25599854 -4.95326721 7.47684082 -4.95535278 6.67407227 C-4.92658346 0.12606406 -4.92658346 0.12606406 0 0 Z " fill="#977441" transform="translate(376.81640625,484.90234375)"/>
<path d="M0 0 C1.58206057 0.00667536 3.16410534 0.0186375 4.74609375 0.03515625 C5.55240234 0.03966797 6.35871094 0.04417969 7.18945312 0.04882812 C9.18753131 0.06065107 11.18557158 0.07858711 13.18359375 0.09765625 C13.18359375 1.41765625 13.18359375 2.73765625 13.18359375 4.09765625 C8.56359375 4.09765625 3.94359375 4.09765625 -0.81640625 4.09765625 C-0.81640625 8.38765625 -0.81640625 12.67765625 -0.81640625 17.09765625 C2.81359375 17.09765625 6.44359375 17.09765625 10.18359375 17.09765625 C10.18359375 18.41765625 10.18359375 19.73765625 10.18359375 21.09765625 C6.55359375 21.09765625 2.92359375 21.09765625 -0.81640625 21.09765625 C-0.81640625 25.38765625 -0.81640625 29.67765625 -0.81640625 34.09765625 C3.47359375 34.09765625 7.76359375 34.09765625 12.18359375 34.09765625 C12.18359375 35.41765625 12.18359375 36.73765625 12.18359375 38.09765625 C6.57359375 38.09765625 0.96359375 38.09765625 -4.81640625 38.09765625 C-4.83931464 32.84654429 -4.85924188 27.59560447 -4.87133789 22.34448242 C-4.87637843 20.55671604 -4.88321079 18.7689538 -4.8918457 16.98120117 C-4.90392355 14.41714457 -4.90963719 11.85314228 -4.9140625 9.2890625 C-4.91922379 8.48489395 -4.92438507 7.6807254 -4.92970276 6.85218811 C-4.9298984 4.9336391 -4.87842608 3.01520257 -4.81640625 1.09765625 C-3.81640625 0.09765625 -3.81640625 0.09765625 0 0 Z " fill="#D9CD8C" transform="translate(694.81640625,484.90234375)"/>
<path d="M0 0 C3.9429464 1.46596725 5.01834588 3.37308275 6.75 7.125 C7.17796875 8.03507812 7.6059375 8.94515625 8.046875 9.8828125 C8.51867187 10.93082031 8.51867187 10.93082031 9 12 C11.07535607 9.35971892 12.72678097 6.77217731 14.1875 3.75 C14.70376953 2.69039063 14.70376953 2.69039063 15.23046875 1.609375 C15.61138672 0.81273437 15.61138672 0.81273437 16 0 C16.99 0 17.98 0 19 0 C18.47639388 4.48337738 17.34852654 7.36549887 15 11.1875 C10.67757859 19.36701038 11.0189172 27.95757883 11 37 C9.68 37 8.36 37 7 37 C7.00902344 35.79085937 7.01804687 34.58171875 7.02734375 33.3359375 C6.90676115 23.01343239 5.75967438 15.67463795 0.3984375 6.78515625 C-1 4 -1 4 -0.7109375 1.62109375 C-0.47632813 1.08613281 -0.24171875 0.55117188 0 0 Z " fill="#A1844F" transform="translate(412,485)"/>
<path d="M0 0 C0.99 0 1.98 0 3 0 C3 11.22 3 22.44 3 34 C7.62 34 12.24 34 17 34 C17 35.32 17 36.64 17 38 C14.18743719 38.02684312 11.37512759 38.04676188 8.5625 38.0625 C7.76005859 38.07087891 6.95761719 38.07925781 6.13085938 38.08789062 C4.08704779 38.0965143 2.04316098 38.0522815 0 38 C-1.78830448 36.21169552 -1.12848711 33.80418848 -1.13894653 31.42358398 C-1.1369223 30.64442627 -1.13489807 29.86526855 -1.1328125 29.0625 C-1.13376923 28.267229 -1.13472595 27.47195801 -1.13571167 26.65258789 C-1.13639343 24.9679354 -1.13453943 23.28328029 -1.13037109 21.59863281 C-1.12502275 19.01100803 -1.13031619 16.42355684 -1.13671875 13.8359375 C-1.13605797 12.20312461 -1.1347768 10.57031184 -1.1328125 8.9375 C-1.13483673 8.15834229 -1.13686096 7.37918457 -1.13894653 6.57641602 C-1.11495105 1.11495105 -1.11495105 1.11495105 0 0 Z " fill="#C9BA7C" transform="translate(732,485)"/>
<path d="M0 0 C0.66 0 1.32 0 2 0 C3.47905238 2.95810476 3.12190903 5.9547155 3.09765625 9.1953125 C3.0962413 9.90275604 3.09482635 10.61019958 3.09336853 11.33908081 C3.087766 13.60109669 3.07521318 15.86301398 3.0625 18.125 C3.05748532 19.65755065 3.05292236 21.19010286 3.04882812 22.72265625 C3.03864616 26.48183947 3.01907143 30.24080924 3 34 C7.62 34 12.24 34 17 34 C17 35.32 17 36.64 17 38 C11.06 38 5.12 38 -1 38 C-1.02290839 32.74888804 -1.04283563 27.49794822 -1.05493164 22.24682617 C-1.05997218 20.45905979 -1.06680454 18.67129755 -1.07543945 16.88354492 C-1.0875173 14.31948832 -1.09323094 11.75548603 -1.09765625 9.19140625 C-1.10281754 8.3872377 -1.10797882 7.58306915 -1.11329651 6.75453186 C-1.11349215 4.83598285 -1.06201983 2.91754632 -1 1 C-0.67 0.67 -0.34 0.34 0 0 Z " fill="#BEAA6F" transform="translate(772,485)"/>
<path d="M0 0 C9.22222222 0 9.22222222 0 12 2 C13.61028119 5.22056238 13.59198765 8.5169099 13 12 C11 14.5 11 14.5 8 16 C5.36 16 2.72 16 0 16 C0 10.72 0 5.44 0 0 Z " fill="#141413" transform="translate(332,503)"/>
<path d="M0 0 C0.66 0.33 1.32 0.66 2 1 C-2.97373033 9.42608432 -9.51670848 17.55153036 -19 21 C-21.875 21.1875 -21.875 21.1875 -24 21 C-23.37695373 15.39258359 -20.69324651 13.43171003 -16.546875 9.92578125 C-12.90011848 7.16834112 -9.05343944 5.08575039 -5 3 C-4.030625 2.38125 -3.06125 1.7625 -2.0625 1.125 C-1.381875 0.75375 -0.70125 0.3825 0 0 Z " fill="#201C18" transform="translate(314,375)"/>
<path d="M0 0 C1.423125 -0.061875 2.84625 -0.12375 4.3125 -0.1875 C5.51326172 -0.23970703 5.51326172 -0.23970703 6.73828125 -0.29296875 C9 0 9 0 10.76953125 1.3515625 C12 3 12 3 12.375 5.5625 C12.25125 6.366875 12.1275 7.17125 12 8 C7.7975546 10.80163026 4.99895065 10.14489712 0 10 C0 6.7 0 3.4 0 0 Z " fill="#221D17" transform="translate(331,489)"/>
<path d="M0 0 C0 3.96094972 -0.11965175 6.01719742 -2.8125 9.0234375 C-8.5 14 -8.5 14 -10 14 C-9.63074596 7.84576594 -8.17122773 5.27296499 -4 1 C-2 0 -2 0 0 0 Z " fill="#24201B" transform="translate(395,327)"/>
<path d="M0 0 C1.875 0.75 1.875 0.75 2.875 1.75 C2.625 5.1875 2.625 5.1875 1.875 8.75 C-1.125 10.75 -1.125 10.75 -4.125 10.75 C-5.52435013 7.95129973 -5.37765405 5.84501208 -5.125 2.75 C-3.53345125 0.28309944 -2.95833673 -0.34803962 0 0 Z " fill="#8A6A3D" transform="translate(722.125,313.25)"/>
<path d="M0 0 C0 0.66 0 1.32 0 2 C-3.465 3.485 -3.465 3.485 -7 5 C-7 3.68 -7 2.36 -7 1 C-4.53721199 -0.231394 -2.7204945 -0.07159196 0 0 Z " fill="#886E44" transform="translate(837,336)"/>
</svg>
